<?xml version="1.0" encoding="utf-8"?>
<!-- Generated by IcoMoon.io -->
<svg version="1.1" xmlns="http://www.w3.org/2000/svg" xmlns:xlink="http://www.w3.org/1999/xlink" width="752" height="172" viewBox="0 0 752 172">
<svg id="icon-telegram" width="28" height="28" viewBox="0 0 28 28" x="0" y="0">
<path d="M18.578 20.422l2.297-10.828c0.203-0.953-0.344-1.328-0.969-1.094l-13.5 5.203c-0.922 0.359-0.906 0.875-0.156 1.109l3.453 1.078 8.016-5.047c0.375-0.25 0.719-0.109 0.438 0.141l-6.484 5.859-0.25 3.563c0.359 0 0.516-0.156 0.703-0.344l1.687-1.625 3.5 2.578c0.641 0.359 1.094 0.172 1.266-0.594zM28 14c0 7.734-6.266 14-14 14s-14-6.266-14-14 6.266-14 14-14 14 6.266 14 14z"></path>
</svg>
<svg id="icon-home3" width="32" height="32" viewBox="0 0 32 32" x="0" y="44">
<path d="M32 19l-6-6v-9h-4v5l-6-6-16 16v1h4v10h10v-6h4v6h10v-10h4z"></path>
</svg>
<svg id="icon-quotes-right" width="32" height="32" viewBox="0 0 32 32" x="48" y="44">
<path d="M25 20c-3.866 0-7-3.134-7-7s3.134-7 7-7 7 3.134 7 7l0.031 1c0 7.732-6.268 14-14 14v-4c2.671 0 5.182-1.040 7.071-2.929 0.364-0.364 0.695-0.75 0.995-1.157-0.357 0.056-0.724 0.086-1.097 0.086zM7 20c-3.866 0-7-3.134-7-7s3.134-7 7-7 7 3.134 7 7l0.031 1c0 7.732-6.268 14-14 14v-4c2.671 0 5.182-1.040 7.071-2.929 0.364-0.364 0.695-0.75 0.995-1.157-0.357 0.056-0.724 0.086-1.097 0.086z"></path>
</svg>
<svg id="icon-company_tagline" width="67" height="32" viewBox="0 0 67 32" x="0" y="92">
<path d="M33.724 15.285c-0.315-0.419-0.466-0.915-0.43-1.414v-2.050c0-0.628 0.142-1.106 0.428-1.433s0.775-0.489 1.469-0.488c0.652 0 1.115 0.139 1.389 0.417 0.299 0.355 0.444 0.789 0.411 1.226v0.482h-1.167v-0.488c0.004-0.16-0.007-0.319-0.034-0.478-0.017-0.108-0.076-0.208-0.167-0.284-0.12-0.082-0.271-0.121-0.423-0.111-0.16-0.010-0.318 0.031-0.444 0.117-0.102 0.084-0.169 0.193-0.193 0.313-0.033 0.167-0.049 0.337-0.046 0.507v2.488c-0.018 0.24 0.033 0.48 0.15 0.699 0.058 0.074 0.139 0.133 0.233 0.169s0.198 0.050 0.301 0.039c0.149 0.011 0.298-0.030 0.413-0.113 0.095-0.082 0.156-0.188 0.174-0.302 0.027-0.165 0.039-0.332 0.036-0.498v-0.505h1.167v0.461c0.033 0.456-0.109 0.909-0.403 1.289-0.268 0.304-0.725 0.457-1.396 0.457s-1.179-0.163-1.466-0.501z"></path>
<path d="M38.583 15.306c-0.295-0.319-0.442-0.784-0.442-1.399v-2.157c0-0.609 0.147-1.070 0.442-1.383s0.788-0.469 1.478-0.467c0.686 0 1.177 0.156 1.471 0.467 0.295 0.313 0.444 0.774 0.444 1.383v2.157c0 0.609-0.15 1.076-0.449 1.397s-0.788 0.482-1.466 0.482c-0.679 0-1.181-0.163-1.478-0.48zM40.605 14.789c0.106-0.2 0.154-0.419 0.14-0.638v-2.64c0.014-0.215-0.034-0.43-0.138-0.626-0.059-0.076-0.142-0.135-0.238-0.172s-0.203-0.050-0.308-0.037c-0.105-0.013-0.212 0-0.308 0.037s-0.18 0.096-0.24 0.172c-0.106 0.195-0.154 0.41-0.14 0.626v2.653c-0.015 0.219 0.033 0.439 0.14 0.638 0.068 0.067 0.152 0.121 0.246 0.158s0.196 0.056 0.3 0.056c0.103 0 0.206-0.019 0.3-0.056s0.178-0.091 0.246-0.158v-0.012z"></path>
<path d="M43.38 9.963h1.256l0.945 3.979 0.966-3.979h1.222l0.123 5.743h-0.904l-0.097-3.992-0.932 3.992h-0.725l-0.966-4.006-0.089 4.006h-0.913l0.114-5.743z"></path>
<path d="M49.301 9.963h1.957c1.127 0 1.691 0.544 1.691 1.631 0 1.041-0.593 1.561-1.78 1.56h-0.667v2.553h-1.208l0.007-5.743zM50.973 12.418c0.119 0.013 0.24 0.004 0.355-0.028s0.22-0.084 0.309-0.154c0.139-0.194 0.2-0.422 0.174-0.649 0.006-0.175-0.013-0.35-0.058-0.521-0.017-0.057-0.047-0.111-0.089-0.158s-0.093-0.086-0.153-0.116c-0.168-0.069-0.353-0.101-0.539-0.092h-0.469v1.716h0.469z"></path>
<path d="M54.691 9.963h1.297l1.331 5.743h-1.126l-0.263-1.324h-1.157l-0.271 1.324h-1.143l1.331-5.743zM55.8 13.717l-0.452-2.411-0.452 2.411h0.903z"></path>
<path d="M58.395 9.963h0.846l1.619 3.276v-3.276h1.003v5.743h-0.804l-1.628-3.42v3.42h-1.036l0.002-5.743z"></path>
<path d="M64.209 13.517l-1.346-3.545h1.133l0.821 2.277 0.771-2.277h1.109l-1.329 3.545v2.19h-1.16v-2.19z"></path>
<path d="M35.589 18.218v0.3h-0.986v2.334h-0.413v-2.334h-0.99v-0.3h2.389z"></path>
<path d="M38.679 20.852h-0.319c-0.032 0.002-0.064-0.007-0.089-0.025-0.024-0.015-0.043-0.036-0.053-0.060l-0.285-0.626h-1.367l-0.285 0.626c-0.008 0.026-0.023 0.050-0.044 0.071-0.025 0.017-0.057 0.026-0.089 0.025h-0.319l1.208-2.634h0.42l1.222 2.624zM36.679 19.874h1.14l-0.483-1.072c-0.036-0.081-0.066-0.164-0.089-0.248-0.017 0.050-0.031 0.098-0.046 0.14l-0.044 0.11-0.478 1.070z"></path>
<path d="M40.762 20.593c0.076 0.003 0.151 0.003 0.227 0 0.065-0.006 0.13-0.016 0.193-0.031 0.059-0.012 0.117-0.029 0.174-0.048 0.053-0.019 0.106-0.042 0.162-0.065v-0.592h-0.483c-0.012 0.001-0.024-0.001-0.035-0.005s-0.021-0.009-0.030-0.016c-0.008-0.006-0.014-0.013-0.018-0.022s-0.006-0.017-0.006-0.026v-0.202h0.937v1.010c-0.077 0.047-0.157 0.089-0.242 0.125-0.086 0.037-0.176 0.067-0.268 0.090-0.099 0.025-0.2 0.043-0.302 0.054-0.117 0.011-0.235 0.017-0.353 0.017-0.208 0.002-0.415-0.032-0.609-0.098-0.181-0.063-0.345-0.156-0.483-0.275-0.134-0.12-0.24-0.262-0.312-0.417-0.076-0.175-0.114-0.36-0.111-0.547-0.003-0.188 0.034-0.374 0.109-0.551 0.069-0.156 0.176-0.298 0.312-0.417 0.138-0.119 0.302-0.212 0.483-0.273 0.207-0.067 0.426-0.1 0.647-0.098 0.112-0 0.225 0.008 0.336 0.023 0.098 0.014 0.195 0.036 0.288 0.067 0.084 0.027 0.165 0.062 0.242 0.104 0.074 0.041 0.144 0.087 0.21 0.138l-0.116 0.163c-0.009 0.015-0.023 0.027-0.039 0.036s-0.036 0.014-0.055 0.014c-0.027-0.001-0.053-0.008-0.075-0.021-0.036-0.017-0.075-0.038-0.118-0.063-0.051-0.028-0.106-0.052-0.162-0.071-0.072-0.025-0.146-0.044-0.222-0.058-0.101-0.016-0.204-0.024-0.307-0.023-0.159-0.002-0.318 0.023-0.466 0.073-0.134 0.047-0.256 0.118-0.355 0.209-0.1 0.095-0.177 0.206-0.225 0.327-0.108 0.285-0.108 0.593 0 0.878 0.053 0.124 0.135 0.237 0.242 0.332 0.099 0.090 0.219 0.162 0.353 0.209 0.154 0.046 0.316 0.063 0.478 0.052z"></path>
<path d="M44.612 20.551h1.319v0.3h-1.722v-2.634h0.413l-0.010 2.334z"></path>
<path d="M47.304 20.852h-0.413v-2.634h0.413v2.634z"></path>
<path d="M48.84 18.23c0.025 0.012 0.046 0.028 0.063 0.048l1.766 1.986c-0.002-0.031-0.002-0.063 0-0.094 0-0.029 0-0.058 0-0.085v-1.877h0.36v2.645h-0.208c-0.031 0.002-0.062-0.003-0.089-0.015-0.025-0.013-0.047-0.030-0.065-0.050l-1.764-1.983c0 0.031 0 0.060 0 0.090s0 0.056 0 0.081v1.877h-0.345v-2.634h0.215c0.023 0 0.046 0.004 0.068 0.012z"></path>
<path d="M54.070 18.218v0.29h-1.464v0.87h1.186v0.279h-1.186v0.899h1.464v0.29h-1.889v-2.628h1.889z"></path>
<path d="M10.782 1.95l18.343 4.497v15.757l-18.343-4.495v-15.759zM9.605 0.607v17.867l20.694 5.074v-17.865l-20.694-5.076z"></path>
<path d="M20.696 31.843l-20.696-5.078v-17.866l20.696 5.076v17.868z"></path>
<path d="M9.948 1.748l18.104 4.44-7.699 6.649-18.106-4.442 7.702-6.647zM9.605 0.607l-9.605 8.292 20.696 5.076 9.603-8.292-20.694-5.076z"></path>
<path d="M21.861 30.838l8.438-7.287-8.438-2.071v9.358z"></path>
</svg>
<svg id="icon-brand" width="43" height="32" viewBox="0 0 43 32" x="96" y="92">
<path d="M3.239 26.432c0.166 0.188 0.254 0.424 0.25 0.665 0.008 0.158-0.022 0.315-0.089 0.46s-0.169 0.275-0.298 0.38c-0.322 0.223-0.722 0.332-1.125 0.307h-1.977v-4.215h1.937c0.382-0.023 0.761 0.076 1.073 0.28 0.125 0.096 0.224 0.217 0.289 0.354s0.095 0.286 0.086 0.435c0.011 0.233-0.068 0.461-0.225 0.645-0.15 0.168-0.358 0.284-0.589 0.329 0.262 0.044 0.499 0.172 0.668 0.36zM0.92 25.796h0.828c0.188 0.013 0.375-0.037 0.526-0.14 0.062-0.052 0.111-0.116 0.141-0.187s0.043-0.148 0.036-0.225c0.006-0.076-0.007-0.153-0.037-0.224s-0.078-0.135-0.138-0.188c-0.156-0.106-0.349-0.156-0.542-0.142h-0.814v1.106zM2.355 27.412c0.066-0.053 0.119-0.119 0.153-0.193s0.049-0.155 0.043-0.235c0.005-0.081-0.010-0.163-0.045-0.238s-0.088-0.142-0.155-0.195c-0.162-0.11-0.361-0.164-0.562-0.152h-0.868v1.159h0.879c0.198 0.011 0.394-0.041 0.556-0.146z"></path>
<path d="M7.197 28.244l-1.077-1.648h-0.405v1.648h-0.927v-4.215h1.754c0.442-0.028 0.879 0.1 1.221 0.358 0.245 0.229 0.393 0.53 0.417 0.85s-0.078 0.637-0.287 0.894c-0.216 0.227-0.512 0.378-0.837 0.428l1.147 1.685h-1.008zM5.715 26.022h0.758c0.526 0 0.789-0.213 0.789-0.638 0.005-0.087-0.009-0.174-0.042-0.255s-0.085-0.156-0.151-0.218c-0.166-0.127-0.38-0.188-0.596-0.171h-0.767l0.009 1.283z"></path>
<path d="M12.262 27.396h-1.847l-0.326 0.848h-0.972l1.696-4.168h1.050l1.689 4.168h-0.972l-0.319-0.848zM12.015 26.757l-0.675-1.779-0.675 1.779h1.349z"></path>
<path d="M18.602 28.244h-0.92l-2.062-2.867v2.867h-0.918v-4.215h0.918l2.062 2.883v-2.883h0.92v4.215z"></path>
<path d="M23.852 27.235c-0.19 0.318-0.48 0.577-0.832 0.743-0.4 0.185-0.845 0.276-1.293 0.266h-1.637v-4.215h1.637c0.448-0.011 0.891 0.078 1.293 0.259 0.352 0.163 0.642 0.419 0.832 0.735 0.189 0.343 0.288 0.722 0.288 1.106s-0.099 0.763-0.288 1.106zM22.799 27.134c0.263-0.28 0.407-0.637 0.407-1.006s-0.144-0.726-0.407-1.006c-0.317-0.254-0.731-0.382-1.152-0.358h-0.639v2.729h0.639c0.42 0.024 0.834-0.105 1.152-0.358z"></path>
<path d="M12.838 0.581c0 0 11.873 4.104 11.621 10.043v10.045c0 0-11.864-4.106-11.617-10.045l-0.005-10.043z"></path>
<path d="M35.037 18.318c2.242-1.413 4.836-2.288 7.544-2.545v-3.145c-3.12 1.101-5.766 3.097-7.544 5.69z"></path>
<path d="M33.69 19.266c1.835-3.384 5.017-5.995 8.891-7.296v-9.061c0 0-16.909 5.846-16.551 14.304v14.302c0 0 0.753-0.262 1.939-0.752 0-0.457 0-0.918 0.054-1.382 0.35-3.926 2.389-7.565 5.668-10.115z"></path>
<path d="M32.081 24.579c0.089-0.992 0.287-1.973 0.592-2.928-2.042 2.203-3.278 4.936-3.536 7.815-0.025 0.272-0.038 0.544-0.045 0.824 0.96-0.422 2.078-0.949 3.252-1.569-0.3-1.362-0.388-2.756-0.263-4.141z"></path>
<path d="M32.754 24.63c-0.113 1.253-0.042 2.514 0.209 3.75 4.62-2.531 9.811-6.442 9.611-11.168v-0.412c-3.301 0.338-6.389 1.659-8.79 3.76-0.562 1.302-0.909 2.674-1.030 4.069z"></path>
</svg>
<svg id="icon-foster-p" width="65" height="32" viewBox="0 0 65 32" x="192" y="92">
<path d="M10.016 10.049h-0.002c-1.827 0-3.308 1.316-3.308 2.94v0.002c0 1.624 1.481 2.94 3.308 2.94h0.002c1.827 0 3.308-1.316 3.308-2.94v-0.002c0-1.624-1.481-2.94-3.308-2.94z"></path>
<path d="M34.434 9.11c-0.005-2.255-1.015-4.417-2.81-6.012s-4.226-2.493-6.764-2.498v0c-2.538 0.004-4.972 0.902-6.767 2.497s-2.806 3.757-2.811 6.013v12.437c0 0 19.149-1.895 19.151-12.434v-0.002z"></path>
<path d="M0 25.628c0.005 1.569 0.708 3.073 1.956 4.183s2.94 1.735 4.706 1.74c1.765-0.005 3.457-0.63 4.705-1.739s1.952-2.613 1.957-4.182v-8.653c0 0-13.325 1.32-13.325 8.652zM6.662 27.178c-0.345 0-0.682-0.091-0.969-0.261s-0.511-0.413-0.643-0.696c-0.132-0.283-0.167-0.595-0.099-0.896s0.233-0.577 0.477-0.794c0.244-0.217 0.555-0.364 0.893-0.424s0.689-0.029 1.008 0.088c0.319 0.117 0.591 0.316 0.783 0.571s0.294 0.555 0.294 0.861c0.001 0.204-0.044 0.406-0.131 0.595s-0.216 0.36-0.378 0.505c-0.162 0.145-0.355 0.259-0.567 0.338s-0.439 0.119-0.669 0.119v-0.006z"></path>
<path d="M18.842 24.402v3.25h-0.67v-3.25h0.67zM20.137 25.791v0.522h-1.478v-0.522h1.478zM20.293 24.402v0.525h-1.634v-0.525h1.634zM23.351 25.952v0.154c0 0.247-0.033 0.469-0.1 0.665s-0.161 0.364-0.284 0.502c-0.122 0.137-0.268 0.242-0.438 0.315-0.168 0.073-0.355 0.109-0.56 0.109-0.204 0-0.391-0.036-0.56-0.109-0.168-0.073-0.314-0.178-0.438-0.315-0.123-0.138-0.22-0.306-0.288-0.502-0.067-0.196-0.101-0.418-0.101-0.665v-0.154c0-0.248 0.034-0.47 0.101-0.665 0.067-0.196 0.161-0.364 0.283-0.502 0.123-0.138 0.269-0.244 0.438-0.317 0.17-0.073 0.356-0.109 0.56-0.109 0.205 0 0.392 0.037 0.56 0.109 0.17 0.073 0.316 0.179 0.438 0.317 0.123 0.138 0.219 0.306 0.286 0.502 0.068 0.195 0.103 0.417 0.103 0.665zM22.675 26.106v-0.158c0-0.173-0.016-0.324-0.047-0.455s-0.077-0.241-0.138-0.33c-0.061-0.089-0.135-0.156-0.223-0.201-0.088-0.046-0.188-0.069-0.301-0.069s-0.214 0.023-0.301 0.069c-0.086 0.045-0.16 0.112-0.221 0.201-0.059 0.089-0.105 0.199-0.136 0.33s-0.047 0.283-0.047 0.455v0.158c0 0.171 0.016 0.323 0.047 0.455 0.031 0.131 0.077 0.242 0.138 0.333 0.061 0.089 0.135 0.157 0.223 0.203s0.188 0.069 0.301 0.069c0.113 0 0.213-0.023 0.301-0.069s0.161-0.114 0.221-0.203c0.059-0.091 0.105-0.202 0.136-0.333 0.031-0.132 0.047-0.284 0.047-0.455zM25.525 26.802c0-0.058-0.009-0.11-0.027-0.156-0.016-0.048-0.048-0.091-0.094-0.13-0.046-0.040-0.111-0.080-0.194-0.118s-0.191-0.079-0.324-0.121c-0.147-0.048-0.287-0.101-0.42-0.161-0.131-0.059-0.247-0.129-0.348-0.208-0.1-0.080-0.178-0.173-0.237-0.279-0.057-0.106-0.085-0.228-0.085-0.368 0-0.135 0.030-0.258 0.089-0.368 0.059-0.112 0.143-0.207 0.25-0.286 0.107-0.080 0.234-0.142 0.379-0.185 0.147-0.043 0.309-0.065 0.484-0.065 0.24 0 0.449 0.043 0.627 0.129s0.317 0.205 0.415 0.355c0.1 0.15 0.15 0.322 0.15 0.516h-0.665c0-0.095-0.020-0.178-0.060-0.25-0.039-0.073-0.098-0.13-0.179-0.172-0.079-0.042-0.179-0.062-0.299-0.062-0.116 0-0.213 0.018-0.29 0.054-0.077 0.034-0.135 0.081-0.174 0.141-0.039 0.058-0.058 0.123-0.058 0.196 0 0.055 0.013 0.105 0.040 0.15 0.028 0.045 0.070 0.086 0.125 0.125s0.123 0.075 0.203 0.109c0.080 0.034 0.173 0.068 0.279 0.1 0.177 0.054 0.333 0.114 0.466 0.181 0.135 0.067 0.249 0.142 0.339 0.225s0.159 0.178 0.205 0.284c0.046 0.106 0.069 0.225 0.069 0.359 0 0.141-0.028 0.268-0.083 0.379s-0.135 0.206-0.239 0.284-0.228 0.136-0.373 0.176c-0.144 0.040-0.306 0.060-0.484 0.060-0.161 0-0.319-0.021-0.475-0.062-0.156-0.043-0.298-0.108-0.426-0.194-0.126-0.086-0.228-0.196-0.304-0.33s-0.114-0.292-0.114-0.475h0.672c0 0.101 0.016 0.187 0.047 0.257s0.075 0.126 0.132 0.17c0.058 0.043 0.127 0.074 0.205 0.094 0.080 0.019 0.168 0.029 0.263 0.029 0.116 0 0.211-0.016 0.286-0.049 0.076-0.033 0.132-0.078 0.167-0.136 0.037-0.058 0.056-0.123 0.056-0.196zM28.103 24.402v3.25h-0.667v-3.25h0.667zM29.103 24.402v0.525h-2.652v-0.525h2.652zM31.666 27.13v0.522h-1.73v-0.522h1.73zM30.154 24.402v3.25h-0.67v-3.25h0.67zM31.44 25.726v0.509h-1.504v-0.509h1.504zM31.663 24.402v0.525h-1.728v-0.525h1.728zM32.056 24.402h1.212c0.249 0 0.462 0.037 0.641 0.112 0.18 0.074 0.318 0.185 0.415 0.33s0.145 0.325 0.145 0.538c0 0.174-0.030 0.324-0.089 0.449-0.058 0.123-0.141 0.227-0.248 0.31-0.106 0.082-0.23 0.147-0.373 0.197l-0.212 0.112h-1.054l-0.004-0.522h0.783c0.118 0 0.215-0.021 0.292-0.062s0.135-0.1 0.174-0.174c0.040-0.074 0.060-0.161 0.060-0.259 0-0.104-0.019-0.194-0.058-0.27s-0.097-0.134-0.176-0.174c-0.079-0.040-0.178-0.060-0.297-0.060h-0.542v2.725h-0.67v-3.25zM33.873 27.652l-0.741-1.449 0.708-0.005 0.75 1.422v0.031h-0.717zM37.389 26.494h-0.828v-0.522h0.828c0.128 0 0.232-0.021 0.313-0.062 0.080-0.043 0.139-0.103 0.176-0.179s0.056-0.161 0.056-0.257c0-0.097-0.019-0.187-0.056-0.27s-0.096-0.15-0.176-0.201-0.185-0.076-0.313-0.076h-0.596v2.725h-0.67v-3.25h1.266c0.254 0 0.473 0.046 0.654 0.138 0.183 0.091 0.323 0.216 0.42 0.377s0.145 0.344 0.145 0.551c0 0.21-0.048 0.391-0.145 0.545s-0.237 0.272-0.42 0.355c-0.181 0.083-0.4 0.125-0.654 0.125zM41.251 27.13v0.522h-1.73v-0.522h1.73zM39.739 24.402v3.25h-0.67v-3.25h0.67zM41.025 25.726v0.509h-1.504v-0.509h1.504zM41.248 24.402v0.525h-1.728v-0.525h1.728zM43.139 24.402v3.25h-0.667v-3.25h0.667zM44.139 24.402v0.525h-2.652v-0.525h2.652zM46.701 27.13v0.522h-1.73v-0.522h1.73zM45.19 24.402v3.25h-0.67v-3.25h0.67zM46.476 25.726v0.509h-1.504v-0.509h1.504zM46.699 24.402v0.525h-1.728v-0.525h1.728zM47.092 24.402h1.212c0.249 0 0.462 0.037 0.641 0.112 0.18 0.074 0.318 0.185 0.415 0.33s0.145 0.325 0.145 0.538c0 0.174-0.030 0.324-0.089 0.449-0.058 0.123-0.141 0.227-0.248 0.31-0.106 0.082-0.23 0.147-0.373 0.197l-0.212 0.112h-1.054l-0.005-0.522h0.784c0.118 0 0.215-0.021 0.292-0.062s0.135-0.1 0.174-0.174c0.040-0.074 0.060-0.161 0.060-0.259 0-0.104-0.019-0.194-0.058-0.27s-0.097-0.134-0.176-0.174c-0.079-0.040-0.178-0.060-0.297-0.060h-0.542v2.725h-0.67v-3.25zM48.909 27.652l-0.741-1.449 0.708-0.005 0.75 1.422v0.031h-0.717zM51.713 26.802c0-0.058-0.009-0.11-0.027-0.156-0.016-0.048-0.048-0.091-0.094-0.13-0.046-0.040-0.111-0.080-0.194-0.118s-0.191-0.079-0.324-0.121c-0.147-0.048-0.287-0.101-0.42-0.161-0.131-0.059-0.247-0.129-0.348-0.208-0.1-0.080-0.178-0.173-0.237-0.279-0.057-0.106-0.085-0.228-0.085-0.368 0-0.135 0.030-0.258 0.089-0.368 0.059-0.112 0.143-0.207 0.25-0.286 0.107-0.080 0.234-0.142 0.379-0.185 0.147-0.043 0.309-0.065 0.484-0.065 0.24 0 0.449 0.043 0.627 0.129s0.317 0.205 0.415 0.355c0.1 0.15 0.15 0.322 0.15 0.516h-0.665c0-0.095-0.020-0.178-0.060-0.25-0.039-0.073-0.098-0.13-0.179-0.172-0.079-0.042-0.179-0.062-0.299-0.062-0.116 0-0.213 0.018-0.29 0.054-0.077 0.034-0.135 0.081-0.174 0.141-0.039 0.058-0.058 0.123-0.058 0.196 0 0.055 0.013 0.105 0.040 0.15 0.028 0.045 0.070 0.086 0.125 0.125s0.123 0.075 0.203 0.109c0.080 0.034 0.173 0.068 0.279 0.1 0.177 0.054 0.333 0.114 0.467 0.181 0.135 0.067 0.249 0.142 0.339 0.225s0.159 0.178 0.205 0.284c0.046 0.106 0.069 0.225 0.069 0.359 0 0.141-0.028 0.268-0.083 0.379s-0.135 0.206-0.239 0.284-0.228 0.136-0.373 0.176c-0.144 0.040-0.306 0.060-0.484 0.060-0.161 0-0.319-0.021-0.475-0.062-0.156-0.043-0.298-0.108-0.426-0.194-0.126-0.086-0.228-0.196-0.304-0.33s-0.114-0.292-0.114-0.475h0.672c0 0.101 0.016 0.187 0.047 0.257s0.075 0.126 0.132 0.17c0.058 0.043 0.127 0.074 0.205 0.094 0.080 0.019 0.168 0.029 0.263 0.029 0.116 0 0.211-0.016 0.286-0.049 0.076-0.033 0.132-0.078 0.167-0.136 0.037-0.058 0.056-0.123 0.056-0.196z"></path>
</svg>
<svg id="icon-company2" width="34" height="32" viewBox="0 0 34 32" x="288" y="92">
<path d="M5.643 31.382c0.012 0 0.024 0.003 0.035 0.007s0.021 0.011 0.029 0.018l0.166 0.159c-0.129 0.129-0.288 0.231-0.467 0.302-0.21 0.076-0.435 0.113-0.663 0.108-0.214 0.004-0.426-0.031-0.623-0.101-0.178-0.065-0.338-0.162-0.469-0.285-0.134-0.128-0.237-0.277-0.303-0.44-0.073-0.182-0.108-0.373-0.106-0.565-0.003-0.194 0.036-0.386 0.114-0.567 0.073-0.164 0.182-0.314 0.322-0.44 0.142-0.124 0.312-0.222 0.499-0.287 0.205-0.069 0.422-0.103 0.642-0.101 0.204-0.004 0.407 0.027 0.596 0.092 0.165 0.062 0.316 0.148 0.447 0.254l-0.139 0.17c-0.010 0.012-0.022 0.022-0.035 0.031-0.016 0.010-0.036 0.014-0.056 0.013-0.022-0.001-0.042-0.008-0.060-0.018l-0.075-0.045-0.104-0.058c-0.045-0.021-0.091-0.040-0.139-0.056-0.062-0.019-0.125-0.034-0.189-0.045-0.082-0.013-0.164-0.019-0.247-0.018-0.158-0.002-0.315 0.024-0.461 0.076-0.136 0.048-0.26 0.121-0.361 0.213-0.104 0.098-0.183 0.214-0.235 0.339-0.058 0.144-0.087 0.295-0.085 0.448-0.002 0.155 0.026 0.309 0.085 0.455 0.051 0.125 0.129 0.239 0.231 0.338 0.095 0.092 0.213 0.163 0.345 0.209 0.136 0.049 0.281 0.073 0.428 0.072 0.085 0.001 0.17-0.004 0.253-0.014 0.137-0.015 0.268-0.056 0.384-0.121 0.058-0.033 0.113-0.071 0.164-0.112 0.021-0.018 0.049-0.028 0.079-0.029z"></path>
<path d="M10.441 30.583c0.003 0.192-0.035 0.382-0.112 0.561-0.068 0.163-0.174 0.311-0.313 0.436s-0.306 0.222-0.491 0.286c-0.407 0.135-0.856 0.135-1.263 0-0.184-0.065-0.35-0.163-0.488-0.287-0.138-0.127-0.246-0.277-0.316-0.44-0.15-0.364-0.15-0.761 0-1.125 0.071-0.164 0.178-0.314 0.316-0.442 0.139-0.12 0.305-0.214 0.488-0.276 0.406-0.137 0.857-0.137 1.263 0 0.185 0.065 0.351 0.163 0.49 0.287 0.137 0.125 0.243 0.273 0.314 0.435 0.077 0.181 0.115 0.372 0.112 0.565zM10.005 30.583c0.003-0.153-0.023-0.306-0.079-0.451-0.047-0.125-0.122-0.24-0.222-0.338-0.097-0.093-0.217-0.166-0.351-0.213-0.296-0.099-0.623-0.099-0.918 0-0.134 0.048-0.254 0.12-0.351 0.213-0.101 0.097-0.178 0.212-0.224 0.338-0.106 0.294-0.106 0.609 0 0.902 0.047 0.125 0.123 0.24 0.224 0.338 0.098 0.092 0.217 0.164 0.351 0.211 0.296 0.096 0.622 0.096 0.918 0 0.134-0.047 0.254-0.119 0.351-0.211 0.1-0.098 0.175-0.213 0.222-0.338 0.056-0.145 0.082-0.298 0.079-0.451z"></path>
<path d="M13.715 31.057l0.044 0.101c0.017-0.036 0.031-0.069 0.048-0.101 0.016-0.034 0.034-0.067 0.054-0.099l1.062-1.677c0.021-0.029 0.039-0.047 0.060-0.052 0.028-0.007 0.058-0.011 0.087-0.009h0.314v2.727h-0.372v-2.005c0-0.025 0-0.054 0-0.085-0.002-0.031-0.002-0.063 0-0.094l-1.068 1.7c-0.014 0.025-0.035 0.047-0.062 0.062s-0.059 0.023-0.091 0.023h-0.060c-0.032 0-0.064-0.007-0.091-0.022s-0.049-0.037-0.062-0.062l-1.099-1.711c0 0.033 0 0.065 0 0.097s0 0.061 0 0.087v2.005h-0.359v-2.722h0.314c0.029-0.001 0.059 0.002 0.087 0.009 0.026 0.011 0.046 0.030 0.058 0.052l1.084 1.678c0.021 0.031 0.039 0.064 0.054 0.097z"></path>
<path d="M17.71 30.921v1.021h-0.415v-2.723h0.926c0.175-0.003 0.349 0.017 0.517 0.060 0.134 0.033 0.259 0.091 0.366 0.17 0.092 0.074 0.163 0.165 0.208 0.267 0.049 0.111 0.073 0.229 0.071 0.348 0.002 0.119-0.024 0.238-0.077 0.348-0.050 0.105-0.127 0.198-0.224 0.273-0.107 0.082-0.232 0.143-0.368 0.18-0.162 0.045-0.331 0.066-0.501 0.063l-0.503-0.007zM17.71 30.629h0.503c0.109 0.001 0.218-0.013 0.322-0.042 0.086-0.025 0.165-0.065 0.233-0.117 0.062-0.050 0.111-0.112 0.141-0.18 0.034-0.073 0.051-0.151 0.050-0.229 0.005-0.076-0.009-0.151-0.042-0.222s-0.082-0.134-0.145-0.186c-0.159-0.108-0.358-0.16-0.559-0.146h-0.503v1.123z"></path>
<path d="M23.294 31.946h-0.328c-0.033 0.001-0.065-0.008-0.091-0.025-0.024-0.017-0.042-0.039-0.054-0.063l-0.282-0.659h-1.419l-0.293 0.659c-0.011 0.024-0.029 0.045-0.052 0.061-0.026 0.018-0.060 0.028-0.093 0.027h-0.328l1.246-2.727h0.432l1.263 2.727zM21.237 30.934h1.172l-0.494-1.11c-0.038-0.084-0.069-0.169-0.093-0.256l-0.048 0.143c-0.015 0.043-0.031 0.083-0.046 0.116l-0.49 1.108z"></path>
<path d="M25.089 29.232c0.025 0.012 0.046 0.029 0.062 0.049l1.818 2.056c0-0.032 0-0.065 0-0.096s0-0.061 0-0.090v-1.931h0.372v2.727h-0.208c-0.029 0.001-0.059-0.005-0.085-0.016-0.026-0.013-0.048-0.030-0.066-0.050l-1.816-2.054c0.002 0.031 0.002 0.063 0 0.094 0 0.031 0 0.058 0 0.083v1.944h-0.372v-2.727h0.22c0.026-0.001 0.051 0.004 0.075 0.013z"></path>
<path d="M30.402 30.862v1.083h-0.415v-1.083l-1.149-1.642h0.372c0.032-0.002 0.064 0.007 0.089 0.023 0.023 0.018 0.042 0.038 0.056 0.061l0.719 1.059c0.029 0.045 0.054 0.087 0.075 0.126s0.037 0.078 0.052 0.116l0.054-0.117c0.020-0.043 0.044-0.085 0.071-0.125l0.708-1.067c0.015-0.021 0.033-0.041 0.054-0.058 0.025-0.019 0.057-0.028 0.089-0.027h0.376l-1.151 1.65z"></path>
<path d="M13.51 24.642c0.181 0.020 0.364 0.036 0.548 0.050 2.803-1.089 5.174-2.872 6.817-5.126s2.485-4.878 2.421-7.546l-3.089-2.684c0.628 2.84 0.334 5.776-0.848 8.479s-3.208 5.067-5.849 6.827z"></path>
<path d="M12.407 24.518l0.083 0.014c2.822-1.754 4.974-4.203 6.176-7.030s1.402-5.904 0.571-8.83l-4.4-3.823c1.78 3.142 2.496 6.659 2.066 10.14s-1.989 6.786-4.496 9.529z"></path>
<path d="M27.328 15.172c-0.747 2.931-2.563 5.574-5.177 7.537-0.763 0.577-1.587 1.090-2.459 1.534 2.128-0.543 4.085-1.504 5.718-2.809s2.9-2.917 3.703-4.714l-1.784-1.549z"></path>
<path d="M26.628 14.741l-2.541-2.207c-0.049 2.517-0.872 4.976-2.385 7.123s-3.66 3.902-6.217 5.084h0.012c0.57-0 1.139-0.030 1.706-0.088 2.39-0.848 4.502-2.196 6.147-3.926s2.771-3.785 3.278-5.985z"></path>
<path d="M12.774 3.237l-3.031-2.637c-2.709 0.91-5.040 2.509-6.686 4.588s-2.531 4.542-2.54 7.066v0c0.010 2.789 1.090 5.495 3.070 7.69s4.745 3.754 7.859 4.43c2.78-2.943 4.407-6.578 4.646-10.38s-0.924-7.569-3.319-10.757z"></path>
<path d="M33.631 14.335c-0.011-3.309-1.529-6.479-4.221-8.818s-6.342-3.658-10.15-3.668c-1.76-0.002-3.504 0.281-5.146 0.832l18.557 16.123c0.635-1.425 0.961-2.941 0.96-4.469z"></path>
</svg>
<svg id="icon-company" width="26" height="32" viewBox="0 0 26 32" x="336" y="92">
<path d="M10.953 1.934h-0.087c-0.134-0.008-0.269-0.011-0.403-0.015v0h-0.291c-0.254 0-0.513 0.006-0.771 0.020-0.019-0.001-0.039-0.001-0.058 0-2.332 0.132-4.618 0.715-6.73 1.717l-0.277 0.133v14.17l0.648-0.22c0.568-0.195 1.174-0.371 1.8-0.534 1.694-0.435 3.433-0.666 5.181-0.688v1.862c-0.232 0.002-0.457 0.008-0.682 0.020h-0.053c-1.345 0.074-2.68 0.279-3.986 0.612-1.654 0.414-3.249 1.036-4.749 1.85v-18.174c1.557-0.908 3.234-1.59 4.982-2.026 1.534-0.396 3.111-0.599 4.695-0.605h0.274c0.327 0.008 0.646 0.023 0.946 0.046 0.789 0.055 1.572 0.18 2.339 0.373v1.833c-0.745-0.174-1.503-0.288-2.267-0.342-0.015-0.001-0.031-0.003-0.046-0.004-0.158-0.013-0.316-0.027-0.464-0.027zM14.178 3.807c0.406 0.031 0.827 0.046 1.253 0.046 1.665-0.006 3.323-0.219 4.936-0.633 1.653-0.416 3.248-1.038 4.747-1.852v17.85c-1.558 0.908-3.236 1.59-4.983 2.026-1.534 0.395-3.111 0.597-4.695 0.604-1.2 0.010-2.397-0.131-3.562-0.42v-17.966c0.275 0.063 0.559 0.122 0.847 0.171 0.473 0.080 0.971 0.138 1.457 0.174zM23.262 3.945l-0.648 0.218c-0.596 0.2-1.196 0.379-1.8 0.539-1.758 0.452-3.565 0.684-5.38 0.69-0.423 0-0.811-0.011-1.187-0.036l-0.516-0.034v14.577l0.444 0.039c0.411 0.036 0.835 0.054 1.263 0.054 1.429-0.006 2.853-0.19 4.237-0.548 1.14-0.286 2.249-0.684 3.311-1.19l0.277-0.133v-14.175z"></path>
<path d="M1.752 27.072c-0.093-0.097-0.205-0.172-0.329-0.223s-0.257-0.074-0.391-0.069c-0.142-0.002-0.284 0.025-0.416 0.078-0.121 0.048-0.231 0.121-0.324 0.213-0.091 0.093-0.163 0.204-0.209 0.326-0.051 0.128-0.076 0.264-0.074 0.402v2.428c-0.006 0.171 0.027 0.341 0.096 0.498 0.057 0.124 0.14 0.235 0.243 0.325 0.097 0.082 0.211 0.141 0.334 0.173 0.118 0.033 0.24 0.050 0.363 0.050 0.135 0.001 0.269-0.028 0.392-0.085 0.121-0.053 0.231-0.129 0.324-0.225 0.090-0.094 0.162-0.205 0.212-0.326 0.052-0.122 0.078-0.254 0.078-0.387v-0.272h-0.635v0.216c0.002 0.074-0.011 0.147-0.037 0.216-0.021 0.052-0.052 0.098-0.092 0.137-0.039 0.032-0.084 0.056-0.133 0.070-0.043 0.014-0.088 0.022-0.133 0.023-0.057 0.007-0.114-0.002-0.166-0.025s-0.098-0.059-0.132-0.105c-0.060-0.098-0.089-0.211-0.084-0.325v-2.264c-0.004-0.126 0.023-0.25 0.078-0.363 0.033-0.051 0.080-0.092 0.135-0.118s0.116-0.036 0.176-0.028c0.055-0.002 0.109 0.009 0.158 0.033s0.092 0.059 0.125 0.103c0.071 0.093 0.108 0.208 0.105 0.326v0.21h0.628v-0.247c0.001-0.145-0.025-0.289-0.078-0.425-0.047-0.127-0.119-0.243-0.212-0.342z"></path>
<path d="M5.522 27.044c-0.202-0.171-0.458-0.265-0.722-0.267-0.129 0.001-0.257 0.024-0.379 0.068-0.123 0.044-0.237 0.112-0.335 0.199-0.105 0.095-0.189 0.21-0.246 0.34-0.064 0.148-0.095 0.309-0.092 0.47v2.329c-0.004 0.164 0.027 0.327 0.092 0.477 0.057 0.125 0.141 0.236 0.246 0.326 0.097 0.090 0.211 0.16 0.335 0.205 0.121 0.045 0.25 0.068 0.379 0.068s0.258-0.023 0.379-0.068c0.126-0.046 0.243-0.115 0.343-0.205 0.101-0.091 0.183-0.202 0.24-0.326 0.065-0.15 0.097-0.313 0.092-0.477v-2.329c0.003-0.162-0.028-0.322-0.092-0.47-0.056-0.128-0.138-0.244-0.24-0.34zM5.226 30.183c0.005 0.062-0.003 0.125-0.025 0.183s-0.056 0.111-0.101 0.154c-0.084 0.070-0.19 0.109-0.299 0.109s-0.215-0.038-0.299-0.109c-0.045-0.043-0.079-0.096-0.101-0.154s-0.030-0.121-0.025-0.183v-2.329c-0.005-0.062 0.003-0.125 0.025-0.183s0.056-0.111 0.101-0.154c0.084-0.070 0.19-0.109 0.299-0.109s0.215 0.039 0.299 0.109c0.045 0.043 0.079 0.096 0.101 0.154s0.030 0.121 0.025 0.183v2.329z"></path>
<path d="M10.475 31.223v-4.409h-0.61l-0.801 2.334h-0.011l-0.808-2.334h-0.604v4.409h0.63v-2.682h0.011l0.617 1.896h0.314l0.622-1.896h0.011v2.682h0.63z"></path>
<path d="M14.053 27.124c-0.097-0.109-0.219-0.192-0.356-0.241-0.147-0.048-0.302-0.071-0.457-0.068h-0.936v4.409h0.628v-1.722h0.324c0.196 0.009 0.391-0.032 0.567-0.12 0.143-0.079 0.262-0.196 0.345-0.337 0.073-0.117 0.122-0.248 0.144-0.384 0.025-0.166 0.036-0.334 0.034-0.501 0.006-0.212-0.015-0.423-0.062-0.63-0.042-0.153-0.122-0.292-0.232-0.405zM13.729 28.468c-0.003 0.080-0.023 0.158-0.058 0.229-0.036 0.068-0.093 0.122-0.162 0.155-0.093 0.042-0.195 0.061-0.296 0.055h-0.287v-1.499h0.324c0.098-0.005 0.195 0.014 0.283 0.055 0.065 0.037 0.117 0.094 0.147 0.163 0.034 0.077 0.053 0.161 0.055 0.246 0 0.093 0 0.19 0 0.293s0.006 0.208 0 0.303h-0.006z"></path>
<path d="M17.029 26.815h-0.515l-0.971 4.409h0.628l0.185-0.947h0.856l0.185 0.947h0.628l-0.996-4.409zM16.449 29.676l0.309-1.598h0.011l0.308 1.598h-0.628z"></path>
<path d="M21.088 29.471h-0.011l-0.949-2.656h-0.604v4.409h0.628v-2.651h0.013l0.96 2.651h0.591v-4.409h-0.628v2.656z"></path>
<path d="M24.926 26.815l-0.505 1.753h-0.013l-0.505-1.753h-0.665l0.863 2.545v1.863h0.628v-1.863l0.863-2.545h-0.665z"></path>
</svg>
<svg id="icon-yaco" width="29" height="32" viewBox="0 0 29 32" x="384" y="92">
<path d="M4.174 0.060l4.875 4.615-9.049-0.005v22.391h23.652v-8.561l4.87 4.61v-23.050h-24.348zM23.438 17.958l-13.822-13.085h13.822v13.085zM19.146 23.786h-15.404v-15.059h1.089v14.040h14.315v1.020zM7.38 30.043l-0.569 1.172-0.569-1.172h-0.477l0.83 1.563v0.91h0.431v-0.91l0.829-1.563h-0.476zM8.095 32.515l0.2-0.576h0.958l0.202 0.576h0.448l-0.936-2.473h-0.386l-0.934 2.473h0.447zM8.774 30.567l0.358 1.026h-0.717l0.358-1.026zM11.040 31.534c-0.062 0.095-0.093 0.2-0.093 0.314 0 0.208 0.073 0.378 0.219 0.508 0.147 0.129 0.343 0.194 0.588 0.194s0.455-0.066 0.632-0.199l0.139 0.165h0.479l-0.363-0.43c0.143-0.195 0.214-0.444 0.214-0.749h-0.358c0 0.166-0.034 0.318-0.104 0.454l-0.477-0.564 0.168-0.122c0.119-0.086 0.204-0.172 0.257-0.258 0.052-0.087 0.078-0.182 0.078-0.285 0-0.156-0.058-0.287-0.173-0.392-0.114-0.106-0.262-0.16-0.442-0.16-0.199 0-0.358 0.057-0.476 0.17-0.118 0.112-0.177 0.265-0.177 0.459 0 0.079 0.019 0.161 0.056 0.246 0.038 0.085 0.106 0.188 0.202 0.309-0.183 0.131-0.306 0.245-0.369 0.341zM12.156 32.081c-0.121 0.093-0.251 0.139-0.391 0.139-0.123 0-0.222-0.036-0.296-0.107s-0.11-0.164-0.11-0.279c0-0.132 0.068-0.25 0.204-0.353l0.053-0.037 0.54 0.637zM11.713 30.985c-0.117-0.144-0.175-0.263-0.175-0.358 0-0.083 0.024-0.151 0.071-0.206s0.111-0.082 0.192-0.082c0.075 0 0.136 0.023 0.185 0.070 0.049 0.045 0.073 0.1 0.073 0.165 0 0.097-0.035 0.177-0.105 0.239l-0.053 0.042-0.189 0.129zM15.738 32.328c0.17-0.148 0.267-0.354 0.292-0.618h-0.428c-0.023 0.177-0.076 0.303-0.161 0.379s-0.212 0.114-0.38 0.114c-0.185 0-0.325-0.070-0.421-0.211-0.095-0.14-0.143-0.344-0.143-0.611v-0.219c0.002-0.264 0.053-0.464 0.153-0.599 0.101-0.137 0.245-0.206 0.431-0.206 0.161 0 0.283 0.040 0.365 0.119 0.084 0.078 0.136 0.206 0.156 0.384h0.428c-0.027-0.271-0.124-0.48-0.29-0.628s-0.386-0.222-0.659-0.222c-0.203 0-0.382 0.048-0.537 0.144-0.154 0.096-0.272 0.233-0.355 0.411s-0.124 0.383-0.124 0.616v0.231c0.003 0.228 0.046 0.427 0.127 0.599s0.197 0.305 0.346 0.399c0.151 0.093 0.324 0.139 0.521 0.139 0.282 0 0.508-0.074 0.678-0.221zM18.263 31.982c0.084-0.183 0.126-0.396 0.126-0.639v-0.138c-0.001-0.241-0.044-0.452-0.129-0.634-0.085-0.182-0.206-0.322-0.362-0.418-0.155-0.097-0.333-0.146-0.535-0.146s-0.38 0.049-0.537 0.148c-0.155 0.097-0.276 0.238-0.362 0.423-0.085 0.185-0.127 0.397-0.127 0.639v0.139c0.001 0.237 0.044 0.446 0.129 0.627 0.086 0.181 0.207 0.321 0.363 0.42 0.157 0.097 0.336 0.146 0.537 0.146 0.203 0 0.382-0.049 0.537-0.146 0.156-0.099 0.276-0.239 0.36-0.421zM17.803 30.584c0.104 0.146 0.156 0.356 0.156 0.63v0.129c0 0.279-0.052 0.49-0.155 0.635-0.102 0.145-0.248 0.217-0.438 0.217-0.188 0-0.335-0.074-0.442-0.222-0.105-0.148-0.158-0.358-0.158-0.63v-0.143c0.002-0.266 0.055-0.472 0.16-0.616 0.105-0.146 0.251-0.219 0.437-0.219 0.19 0 0.337 0.073 0.44 0.219z"></path>
</svg>
<svg id="icon-antena" width="30" height="32" viewBox="0 0 30 32" x="432" y="92">
<path d="M29.859 22.098l-8.443-8.505 0.937-4.615c0.242 0.094 0.499 0.144 0.758 0.146h0.006c1.192 0.014 2.17-0.941 2.184-2.133s-0.941-2.17-2.133-2.184c-1.192-0.014-2.17 0.941-2.184 2.133-0.003 0.255 0.039 0.509 0.125 0.749l-4.96 0.605-8.091-8.133c-0.099-0.101-0.235-0.159-0.377-0.16-0.14 0.001-0.274 0.056-0.373 0.155l-1.513 1.504c-0.208 0.208-0.208 0.546 0 0.754l0.814 0.826c-3.153 5.798-2.129 12.978 2.519 17.663 0.043 0.041 0.092 0.074 0.146 0.098-0.034 0.18-0.051 0.364-0.052 0.547v6.187h-6.4c-1.472 0.002-2.665 1.195-2.667 2.667v1.067c0 0.295 0.239 0.533 0.533 0.533h24.533c0.295 0 0.533-0.239 0.533-0.533v-1.067c-0.002-1.472-1.195-2.665-2.667-2.667h-6.4v-2.742c1.003 0.21 2.024 0.317 3.049 0.32 2.458-0.003 4.877-0.615 7.040-1.783l0.818 0.823c0.099 0.101 0.235 0.159 0.377 0.16 0.14-0.001 0.274-0.056 0.373-0.155l1.513-1.504c0.208-0.208 0.208-0.546 0-0.754zM22.366 6.233c0.418-0.415 1.093-0.414 1.508 0.004s0.414 1.093-0.004 1.508c-0.2 0.199-0.47 0.31-0.752 0.31h-0.003c-0.589-0.003-1.064-0.483-1.061-1.072 0.002-0.282 0.115-0.552 0.314-0.751h-0.002zM21.11 9.738l-0.598 2.946-1.175-1.182 1.774-1.763zM20.504 8.836l-1.92 1.909-1.485-1.493 3.405-0.415zM23.090 28.8c0.884 0 1.6 0.716 1.6 1.6v0.533h-23.467v-0.533c0-0.884 0.716-1.6 1.6-1.6h20.267zM15.623 26.667v1.067h-5.333v-1.067h5.333zM10.29 25.6v-4.053c0-1.294 1.196-2.347 2.667-2.347s2.667 1.053 2.667 2.347v4.053h-5.333zM16.69 23.904v-2.357c0-1.882-1.675-3.413-3.733-3.413-1.331-0.020-2.576 0.657-3.281 1.786-4.058-4.274-4.971-10.645-2.279-15.887l18.602 18.708c-2.872 1.461-6.165 1.873-9.309 1.163zM27.979 23.22l-21.057-21.181 0.755-0.752 7.935 7.98c0.004 0 0.006 0.007 0.010 0.010l13.115 13.191-0.757 0.752z"></path>
<path d="M12.961 20.267h-0.005c-0.884-0.001-1.601 0.714-1.602 1.598s0.714 1.601 1.598 1.602h0.005c0.884 0.001 1.601-0.714 1.602-1.598s-0.714-1.601-1.598-1.602zM13.335 22.245c-0.1 0.1-0.236 0.156-0.378 0.155-0.295-0.002-0.532-0.242-0.531-0.536 0.001-0.141 0.057-0.276 0.157-0.375s0.233-0.154 0.373-0.155c0.295 0.002 0.532 0.241 0.53 0.536-0.001 0.141-0.057 0.276-0.157 0.375h0.005z"></path>
</svg>
<svg id="icon-astronaut" width="32" height="32" viewBox="0 0 32 32" x="480" y="92">
<path d="M31.974 4.524c-0.063-0.193-0.229-0.333-0.43-0.363l-1.91-0.278-0.855-1.731c-0.179-0.365-0.777-0.365-0.956 0l-0.855 1.731-1.91 0.278c-0.201 0.029-0.367 0.17-0.431 0.363-0.062 0.193-0.011 0.405 0.135 0.547l1.383 1.348-0.326 1.903c-0.034 0.2 0.048 0.402 0.212 0.522 0.166 0.121 0.382 0.135 0.562 0.040l1.709-0.899 1.709 0.899c0.078 0.041 0.164 0.061 0.249 0.061 0.11 0 0.221-0.034 0.314-0.102 0.164-0.119 0.246-0.322 0.212-0.522l-0.326-1.903 1.383-1.348c0.145-0.142 0.197-0.354 0.135-0.547zM29.511 5.851c-0.125 0.122-0.183 0.299-0.153 0.472l0.191 1.114-1-0.526c-0.078-0.041-0.163-0.061-0.249-0.061s-0.17 0.020-0.249 0.061l-1.001 0.526 0.191-1.114c0.030-0.173-0.028-0.349-0.153-0.472l-0.81-0.789 1.119-0.163c0.174-0.025 0.324-0.134 0.402-0.292l0.5-1.013 0.5 1.013c0.078 0.157 0.228 0.267 0.402 0.292l1.119 0.163-0.809 0.789z"></path>
<path d="M26.134 20.522h-1.067v1.067h1.067v-1.067z"></path>
<path d="M26.134 22.656h-1.067v1.067h1.067v-1.067z"></path>
<path d="M27.2 21.589h-1.067v1.067h1.067v-1.067z"></path>
<path d="M25.067 21.589h-1.067v1.067h1.067v-1.067z"></path>
<path d="M22.4 26.389h-1.067v1.067h1.067v-1.067z"></path>
<path d="M22.4 28.522h-1.067v1.067h1.067v-1.067z"></path>
<path d="M23.467 27.456h-1.067v1.067h1.067v-1.067z"></path>
<path d="M21.333 27.456h-1.067v1.067h1.067v-1.067z"></path>
<path d="M16 24.256h-1.067v1.067h1.067v-1.067z"></path>
<path d="M16 26.389h-1.067v1.067h1.067v-1.067z"></path>
<path d="M17.067 25.322h-1.067v1.067h1.067v-1.067z"></path>
<path d="M14.933 25.322h-1.067v1.067h1.067v-1.067z"></path>
<path d="M5.867 6.122h-1.067v1.067h1.067v-1.067z"></path>
<path d="M5.867 8.255h-1.067v1.067h1.067v-1.067z"></path>
<path d="M6.933 7.189h-1.067v1.067h1.067v-1.067z"></path>
<path d="M4.8 7.189h-1.067v1.067h1.067v-1.067z"></path>
<path d="M24.715 14.159c-0.287-0.388-0.709-0.637-1.188-0.705-0.481-0.068-0.956 0.058-1.34 0.352l-1.252 0.96-1.898 1.417-1.358-0.541c2.421-1.086 4.114-3.508 4.114-6.32 0-3.823-3.123-6.933-6.961-6.933s-6.961 3.11-6.961 6.933c0 1.386 0.414 2.674 1.12 3.758l-2.764-0.024c-0.002 0-0.003 0-0.005 0-0.009 0-0.015 0.004-0.023 0.005-0.053 0.002-0.105 0.013-0.155 0.031-0.013 0.005-0.026 0.008-0.038 0.013-0.006 0.003-0.013 0.003-0.019 0.006l-3.233 1.596c-0.001 0-0.001 0-0.001 0.001l-1.893 0.911c-0.021 0.009-0.042 0.021-0.063 0.035-0.755 0.502-1.012 1.489-0.598 2.295 0.22 0.429 0.595 0.745 1.056 0.889 0.178 0.055 0.359 0.083 0.539 0.083 0.29 0 0.577-0.071 0.839-0.211l1.388-0.738 2.264-1.169 1.357-0.008-5.442 5.416c-0.001 0.001-0.001 0.001-0.002 0.001l-1.339 1.333c-0.316 0.315-0.49 0.732-0.49 1.178s0.174 0.863 0.49 1.179c0.325 0.323 0.752 0.485 1.179 0.485s0.854-0.162 1.18-0.485l1.314-1.309 1.741-1.3 0.901 0.897-1.762 1.754c-0 0.001-0.001 0.001-0.002 0.001l-1.339 1.333c-0.316 0.315-0.49 0.732-0.49 1.178s0.174 0.863 0.49 1.179c0.325 0.323 0.753 0.485 1.18 0.485s0.855-0.162 1.18-0.485l3.482-3.467c0.001-0.001 0.001-0.001 0.001-0.002l1.010-1-0.004-0.004c0.006-0.006 0.015-0.009 0.022-0.015l5.166-5.658 3.471 0.494c0.025 0.004 0.050 0.005 0.075 0.005 0.065 0 0.127-0.015 0.187-0.038 0.018-0.006 0.033-0.015 0.050-0.023 0.019-0.010 0.039-0.015 0.058-0.027l3.213-2.133c0.012-0.008 0.018-0.021 0.029-0.029 0.013-0.010 0.029-0.014 0.041-0.026l1.271-1.191c0.662-0.62 0.753-1.635 0.212-2.362zM2.13 17.77c-0.173 0.093-0.37 0.111-0.558 0.052-0.187-0.058-0.338-0.186-0.427-0.358-0.161-0.314-0.068-0.695 0.214-0.902l1.314-0.632 0.449 1.312-0.992 0.528zM5.628 15.942l-1.548 0.8-0.439-1.283 2.027-1.001-0.040 1.484zM20.727 9.322c0 0.918-0.219 1.785-0.599 2.559l-4.181-1.899c-0.044-0.573-0.341-1.075-0.788-1.388l1.464-4.86c2.378 0.756 4.105 2.974 4.105 5.588zM8.938 9.322c0-3.235 2.644-5.867 5.894-5.867 0.253 0 0.5 0.021 0.745 0.052l-1.432 4.754c-0.019-0.001-0.037-0.006-0.057-0.006-1.033 0-1.873 0.837-1.873 1.867s0.84 1.867 1.873 1.867c0.694 0 1.294-0.383 1.618-0.945l3.862 1.755c-1.075 1.446-2.795 2.39-4.737 2.39-3.25 0-5.894-2.632-5.894-5.867zM14.894 10.122c0 0.441-0.362 0.8-0.806 0.8s-0.806-0.359-0.806-0.8c0-0.441 0.362-0.8 0.806-0.8s0.806 0.359 0.806 0.8zM2.465 25.146c-0.236 0.234-0.619 0.234-0.854 0.001-0.114-0.114-0.176-0.263-0.176-0.423s0.062-0.309 0.176-0.421l0.962-0.958 0.851 0.848-0.959 0.955zM5.679 28.88c-0.236 0.234-0.619 0.235-0.855 0.001-0.114-0.114-0.176-0.263-0.176-0.423s0.062-0.309 0.176-0.421l0.963-0.959 0.852 0.848-0.96 0.955zM9.16 25.411c-0.001 0-0.001 0-0.002 0.001l-1.765 1.76-0.852-0.848 1.763-1.755c0 0 0 0 0-0s0.001-0.001 0.002-0.001c0.040-0.040 0.065-0.088 0.090-0.135 0.007-0.014 0.020-0.026 0.026-0.040 0.017-0.041 0.019-0.085 0.026-0.129 0.003-0.025 0.014-0.047 0.014-0.073 0-0.036-0.013-0.070-0.020-0.106-0.006-0.032-0.006-0.065-0.019-0.095-0.020-0.050-0.055-0.094-0.091-0.138-0.010-0.012-0.014-0.027-0.025-0.038 0 0 0 0-0.001 0s-0.001-0.002-0.001-0.002l-1.607-1.6c-0.017-0.017-0.039-0.024-0.058-0.038-0.028-0.022-0.055-0.042-0.087-0.058-0.030-0.015-0.061-0.024-0.093-0.033-0.034-0.010-0.067-0.017-0.103-0.020-0.033-0.002-0.063 0.001-0.095 0.005-0.036 0.004-0.069 0.009-0.104 0.020-0.034 0.011-0.063 0.027-0.094 0.045-0.020 0.011-0.042 0.015-0.061 0.029l-1.773 1.324-0.901-0.897 2.399-2.386 4.361 4.289-0.928 0.919zM15.979 18.394c-0.015-0.002-0.030 0.004-0.045 0.003-0.039-0.002-0.076 0.001-0.115 0.007-0.030 0.005-0.059 0.011-0.088 0.021-0.034 0.012-0.065 0.028-0.097 0.047-0.030 0.018-0.057 0.037-0.083 0.061-0.013 0.011-0.028 0.017-0.040 0.029l-4.698 5.146-4.328-4.257 2.833-2.818c0.209-0.208 0.21-0.546 0.002-0.755-0.105-0.105-0.243-0.157-0.381-0.156v-0.001l-2.219 0.013 0.028-1.607 3.104 0.027c1.265 1.294 3.029 2.101 4.981 2.101 0.437 0 0.864-0.045 1.279-0.123 0.040 0.032 0.079 0.065 0.13 0.085l2.41 0.96 0.152 0.758 0.178 0.885-3.003-0.427zM20.020 18.572l-0.313-1.558 1.446-1.080 0.947 1.257-2.080 1.381zM23.774 15.741l-0.838 0.785-0.931-1.236 0.831-0.637c0.155-0.119 0.351-0.168 0.543-0.143 0.193 0.027 0.364 0.128 0.48 0.284 0.217 0.292 0.18 0.699-0.085 0.947z"></path>
<path d="M13.602 18.544l-2.143-2.133c-0.207-0.207-0.545-0.207-0.753 0l-2.142 2.133c-0.1 0.101-0.157 0.236-0.157 0.378s0.056 0.278 0.157 0.378l2.142 2.133c0.104 0.103 0.241 0.155 0.377 0.155s0.273-0.052 0.376-0.155l2.143-2.133c0.1-0.1 0.157-0.236 0.157-0.378s-0.057-0.278-0.157-0.378zM11.083 20.303l-1.387-1.381 1.387-1.381 1.387 1.381-1.387 1.381z"></path>
<path d="M17.164 5.071l-0.258 1.036c0.071 0.018 1.738 0.452 1.738 2.149h1.067c-0-2.017-1.666-2.965-2.547-3.185z"></path>
<path d="M19.711 9.322h-1.067v1.067h1.067v-1.067z"></path>
</svg>
<svg id="icon-clock" width="31" height="32" viewBox="0 0 31 32" x="528" y="92">
<path d="M29.317 13.732c-0.002-7.585-6.152-13.733-13.738-13.732s-13.733 6.152-13.732 13.738c0.001 5.975 3.865 11.264 9.557 13.081 0.054 0.017 0.111 0.026 0.168 0.026 0.108-0 0.214-0.029 0.307-0.084 0.121-0.072 0.212-0.186 0.254-0.32l3.469-10.994c0.948-0.005 1.713-0.778 1.708-1.726s-0.777-1.713-1.726-1.708c-0.255 0.001-0.507 0.060-0.736 0.172l-4.582-4.583c-0.227-0.22-0.59-0.213-0.809 0.014-0.214 0.222-0.214 0.573 0 0.795l4.58 4.585c-0.351 0.717-0.151 1.583 0.481 2.072l-3.305 10.476c-6.531-2.406-9.876-9.651-7.47-16.182s9.651-9.876 16.182-7.47 9.876 9.651 7.47 16.182c-1.175 3.191-3.591 5.772-6.697 7.156l-0.357-1.682c-0.065-0.309-0.369-0.507-0.678-0.441-0.098 0.021-0.188 0.067-0.262 0.133l-3.443 3.074c-0.236 0.21-0.257 0.572-0.047 0.808 0.068 0.077 0.156 0.134 0.254 0.165l4.396 1.403c0.301 0.097 0.623-0.069 0.72-0.37 0.031-0.095 0.036-0.196 0.015-0.294l-0.351-1.65c5.083-2.143 8.384-7.128 8.372-12.644zM15.583 13.16c0.316 0 0.572 0.256 0.572 0.572s-0.256 0.572-0.572 0.572c-0.316 0-0.572-0.256-0.572-0.572s0.256-0.572 0.572-0.572zM17.468 26.499l1.96-1.748 0.541 2.549-2.501-0.801z"></path>
<path d="M15.010 2.858v1.145c0 0.316 0.256 0.572 0.572 0.572s0.572-0.256 0.572-0.572v-1.145c0-0.316-0.256-0.572-0.572-0.572s-0.572 0.256-0.572 0.572z"></path>
<path d="M4.709 13.16c-0.316 0-0.572 0.256-0.572 0.572s0.256 0.572 0.572 0.572h1.145c0.316 0 0.572-0.256 0.572-0.572s-0.256-0.572-0.572-0.572h-1.145z"></path>
<path d="M26.456 14.304c0.316 0 0.572-0.256 0.572-0.572s-0.256-0.572-0.572-0.572h-1.145c-0.316 0-0.572 0.256-0.572 0.572s0.256 0.572 0.572 0.572h1.145z"></path>
</svg>
<svg id="icon-diagram" width="32" height="32" viewBox="0 0 32 32" x="576" y="92">
<path d="M14.926 14.965h1.066v4.798h-1.066v-4.797z"></path>
<path d="M19.19 17.097h1.066v2.665h-1.066v-2.665z"></path>
<path d="M10.661 18.696h1.066v1.066h-1.066v-1.066z"></path>
<path d="M7.463 18.163h1.066v1.599h-1.066v-1.599z"></path>
<path d="M1.599 28.291h25.587c0.883 0 1.599-0.716 1.599-1.599v-2.132c0-0.883-0.716-1.599-1.599-1.599h-0.533v-13.293l3.028-2.868c0.703 0.346 1.553 0.136 2.013-0.499s0.396-1.508-0.152-2.068-1.42-0.644-2.065-0.198c-0.644 0.446-0.873 1.292-0.542 2.002l-2.281 2.163v-1.23c0-0.883-0.716-1.599-1.599-1.599h-21.322c-0.883 0-1.599 0.716-1.599 1.599v15.992h-0.533c-0.883 0-1.599 0.716-1.599 1.599v2.132c0 0.883 0.716 1.599 1.599 1.599zM30.384 4.837c0.294 0 0.533 0.239 0.533 0.533s-0.239 0.533-0.533 0.533c-0.294 0-0.533-0.239-0.533-0.533s0.239-0.533 0.533-0.533zM3.198 6.969c0-0.294 0.239-0.533 0.533-0.533h21.322c0.294 0 0.533 0.239 0.533 0.533v2.239l-1.066 1.013v-2.186c0-0.294-0.239-0.533-0.533-0.533h-19.19c-0.294 0-0.533 0.239-0.533 0.533v13.326c0 0.294 0.239 0.533 0.533 0.533h19.19c0.294 0 0.533-0.239 0.533-0.533v-9.674l1.066-1.010v12.284h-22.388v-15.992zM7.996 13.899c-0.721-0.002-1.354 0.478-1.546 1.174s0.105 1.433 0.725 1.801c0.62 0.368 1.41 0.276 1.928-0.226l1.853 0.93c0.215 0.108 0.476 0.057 0.636-0.123l3.939-4.431 3.872 2.901c0.208 0.156 0.498 0.139 0.686-0.039l3.365-3.188v8.131h-18.124v-12.26h18.124v2.66l-3.771 3.572-3.904-2.927c-0.222-0.166-0.534-0.135-0.718 0.072l-3.993 4.493-1.493-0.746c0.011-0.064 0.018-0.129 0.020-0.193 0-0.883-0.716-1.599-1.599-1.599zM8.529 15.498c0 0.294-0.239 0.533-0.533 0.533s-0.533-0.239-0.533-0.533c0-0.294 0.239-0.533 0.533-0.533s0.533 0.239 0.533 0.533zM11.727 24.027h5.331v0.533c0 0.294-0.239 0.533-0.533 0.533h-4.264c-0.294 0-0.533-0.239-0.533-0.533v-0.533zM1.066 24.56c0-0.294 0.239-0.533 0.533-0.533h9.062v0.533c0 0.883 0.716 1.599 1.599 1.599h4.264c0.883 0 1.599-0.716 1.599-1.599v-0.533h9.062c0.294 0 0.533 0.239 0.533 0.533v2.132c0 0.294-0.239 0.533-0.533 0.533h-25.587c-0.294 0-0.533-0.239-0.533-0.533v-2.132z"></path>
</svg>
<svg id="icon-envelope" width="43" height="32" viewBox="0 0 43 32" x="624" y="92">
<path d="M38.667 0h-34.667c-2.206 0-4 1.794-4 4v24c0 2.206 1.794 4 4 4h34.667c2.206 0 4-1.794 4-4v-24c0-2.206-1.794-4-4-4zM38.667 2.667c0.181 0 0.353 0.038 0.511 0.103l-17.844 15.466-17.844-15.466c0.158-0.066 0.33-0.103 0.511-0.103h34.667zM38.667 29.333h-34.667c-0.736 0-1.333-0.598-1.333-1.333v-22.413l17.793 15.421c0.251 0.217 0.563 0.326 0.874 0.326s0.622-0.108 0.874-0.326l17.793-15.421v22.413c0 0.736-0.598 1.333-1.333 1.333z"></path>
</svg>
<svg id="icon-fb" width="18" height="32" viewBox="0 0 18 32" x="0" y="140">
<path d="M13.329 5.313h2.921v-5.088c-0.504-0.069-2.237-0.225-4.256-0.225-4.212 0-7.097 2.649-7.097 7.519v4.481h-4.648v5.688h4.648v14.312h5.699v-14.311h4.46l0.708-5.688h-5.169v-3.919c0.001-1.644 0.444-2.769 2.735-2.769z"></path>
</svg>
<svg id="icon-ig" width="32" height="32" viewBox="0 0 32 32" x="48" y="140">
<path d="M31.969 9.408c-0.075-1.7-0.35-2.869-0.744-3.882-0.406-1.075-1.032-2.038-1.851-2.838-0.8-0.813-1.769-1.444-2.832-1.844-1.019-0.394-2.182-0.669-3.882-0.744-1.713-0.081-2.257-0.1-6.601-0.1s-4.888 0.019-6.595 0.094c-1.7 0.075-2.869 0.35-3.882 0.744-1.075 0.406-2.038 1.031-2.838 1.85-0.813 0.8-1.444 1.769-1.844 2.832-0.394 1.019-0.669 2.182-0.744 3.882-0.081 1.713-0.1 2.257-0.1 6.601s0.019 4.888 0.094 6.595c0.075 1.7 0.35 2.869 0.744 3.882 0.406 1.075 1.038 2.038 1.85 2.838 0.8 0.813 1.769 1.444 2.832 1.844 1.019 0.394 2.182 0.669 3.882 0.744 1.706 0.075 2.25 0.094 6.595 0.094s4.888-0.019 6.595-0.094c1.7-0.075 2.869-0.35 3.882-0.744 2.151-0.832 3.851-2.532 4.682-4.682 0.394-1.019 0.669-2.182 0.744-3.882 0.075-1.707 0.094-2.251 0.094-6.595s-0.006-4.888-0.081-6.595zM29.087 22.473c-0.069 1.563-0.331 2.407-0.55 2.969-0.538 1.394-1.644 2.5-3.038 3.038-0.563 0.219-1.413 0.481-2.969 0.55-1.688 0.075-2.194 0.094-6.464 0.094s-4.782-0.019-6.464-0.094c-1.563-0.069-2.407-0.331-2.969-0.55-0.694-0.256-1.325-0.663-1.838-1.194-0.531-0.519-0.938-1.144-1.194-1.838-0.219-0.563-0.481-1.413-0.55-2.969-0.075-1.688-0.094-2.194-0.094-6.464s0.019-4.782 0.094-6.464c0.069-1.563 0.331-2.407 0.55-2.969 0.256-0.694 0.663-1.325 1.2-1.838 0.519-0.531 1.144-0.938 1.838-1.194 0.563-0.219 1.413-0.481 2.969-0.55 1.688-0.075 2.194-0.094 6.464-0.094 4.276 0 4.782 0.019 6.464 0.094 1.563 0.069 2.407 0.331 2.969 0.55 0.694 0.256 1.325 0.662 1.838 1.194 0.531 0.519 0.938 1.144 1.194 1.838 0.219 0.563 0.481 1.413 0.55 2.969 0.075 1.688 0.094 2.194 0.094 6.464s-0.019 4.77-0.094 6.458z"></path>
<path d="M16.059 7.783c-4.538 0-8.22 3.682-8.22 8.22s3.682 8.22 8.22 8.22c4.539 0 8.22-3.682 8.22-8.22s-3.682-8.22-8.22-8.22zM16.059 21.335c-2.944 0-5.332-2.388-5.332-5.332s2.388-5.332 5.332-5.332c2.944 0 5.332 2.388 5.332 5.332s-2.388 5.332-5.332 5.332z"></path>
<path d="M26.524 7.458c0 1.060-0.859 1.919-1.919 1.919s-1.919-0.859-1.919-1.919c0-1.060 0.859-1.919 1.919-1.919s1.919 0.859 1.919 1.919z"></path>
</svg>
<svg id="icon-linkedin" width="32" height="32" viewBox="0 0 32 32" x="96" y="140">
<path d="M31.992 32v-0.001h0.008v-11.736c0-5.741-1.236-10.164-7.948-10.164-3.227 0-5.392 1.771-6.276 3.449h-0.093v-2.913h-6.364v21.364h6.627v-10.579c0-2.785 0.528-5.479 3.977-5.479 3.399 0 3.449 3.179 3.449 5.657v10.401h6.62z"></path>
<path d="M0.528 10.636h6.635v21.364h-6.635v-21.364z"></path>
<path d="M3.843 0c-2.121 0-3.843 1.721-3.843 3.843s1.721 3.879 3.843 3.879c2.121 0 3.843-1.757 3.843-3.879-0.001-2.121-1.723-3.843-3.843-3.843v0z"></path>
</svg>
<svg id="icon-phone" width="20" height="32" viewBox="0 0 20 32" x="144" y="140">
<path d="M17 0h-14c-1.654 0-3 1.346-3 3v26c0 1.654 1.346 3 3 3h14c1.654 0 3-1.346 3-3v-26c0-1.654-1.346-3-3-3zM3 2h14c0.552 0 1 0.448 1 1v21h-16v-21c0-0.552 0.448-1 1-1zM17 30h-14c-0.552 0-1-0.448-1-1v-3h16v3c0 0.552-0.448 1-1 1z"></path>
<path d="M4.707 27.478c0.391 0.365 0.391 0.956 0 1.321s-1.024 0.365-1.414 0c-0.391-0.365-0.391-0.956 0-1.321s1.024-0.365 1.414 0z"></path>
</svg>
<svg id="icon-twitter" width="36" height="32" viewBox="0 0 36 32" x="192" y="140">
<path d="M35.556 4.976c-1.322 0.58-2.731 0.964-4.2 1.151 1.511-0.902 2.665-2.32 3.207-4.029-1.409 0.84-2.964 1.433-4.622 1.764-1.338-1.424-3.244-2.307-5.324-2.307-4.035 0-7.284 3.276-7.284 7.291 0 0.578 0.049 1.133 0.169 1.662-6.060-0.296-11.422-3.2-15.024-7.624-0.629 1.091-0.998 2.34-0.998 3.684 0 2.524 1.3 4.762 3.238 6.058-1.171-0.022-2.32-0.362-3.293-0.898 0 0.022 0 0.051 0 0.080 0 3.542 2.527 6.484 5.84 7.162-0.593 0.162-1.24 0.24-1.911 0.24-0.467 0-0.938-0.026-1.38-0.124 0.944 2.887 3.624 5.009 6.811 5.078-2.48 1.94-5.629 3.109-9.038 3.109-0.598 0-1.171-0.026-1.744-0.1 3.229 2.082 7.056 3.271 11.182 3.271 13.413 0 20.747-11.111 20.747-20.742 0-0.322-0.011-0.633-0.027-0.942 1.447-1.027 2.662-2.309 3.653-3.784z"></path>
</svg>
</svg>
